<?xml version="1.0" encoding="UTF-8"?><svg id="Layer_1" xmlns="http://www.w3.org/2000/svg" viewBox="0 0 1871.44 492.61"><defs><style>.cls-1{fill:#f3ee2c;}.cls-2{fill:#f6f12b;}.cls-3{fill:#040402;}.cls-4{fill:#030303;}.cls-5{fill:#f1ec2b;}.cls-6{fill:#fcfcf4;}.cls-7{fill:#fefefe;}.cls-8{fill:#faf400;}.cls-9{fill:#070704;}</style></defs><g><g><path class="cls-4" d="M1397.46,4.3c100.98-.02,201.95,1.35,302.92-1.21,23.03-.58,46.08-.52,69.12-.95,30.81-.57,61.62-1.16,92.42-2.13,7.4-.23,9.56,1.76,9.51,9.58-.38,60.63-.58,121.27-.02,181.9,.39,42.35-4.65,84.48-4.12,126.78,.51,40.29-1.28,80.61,1.5,120.86,.58,8.37-.26,14.99-11.47,13.19-2.54-.41-5.36,1.2-8,1.03-6.09-.38-8.75,1.55-7.29,8.04,.65,2.92,.33,6.07,.29,9.12-.06,5.37-1.51,7.82-8.23,8.17-110.68,5.68-221.46,4.83-332.22,5.65-71.15,.53-142.31,.8-213.44,2.44-228.35,5.28-456.74,7.09-685.12,4.95-189.79-1.77-379.56-.98-569.34-1.44-8.56-.02-19.83,4.49-24.97-1.97-4.36-5.48-2.29-16.2-2.76-24.62C.68,363.9,3.66,263.98,2.24,164.12,1.68,124.84,1.21,85.56,.02,46.3c-.32-10.51,3.8-14.75,13.44-13.43,11.17,1.53,15.3-2.49,13.25-13.54-1.86-10.06,3.51-13.12,12.71-13.07,30.49,.16,61.05,1.28,91.47-.24C218.24,1.66,305.65,.92,393.01,2.47c216.2,3.83,432.41,.42,648.6,2.64,69.81,.71,139.59,1.82,209.38-.53,1.35-.01,2.71-.02,4.06-.03,2.71-.01,5.41-.03,8.12-.04,44.76-.07,89.53-.13,134.29-.2ZM605.21,457.74c212.1-.87,411,1.27,609.88-3.54,93.46-2.26,186.98-2.39,280.46-4.15,59.62-1.12,119.28,.01,178.91-.74,58.92-.74,117.81-2.65,176.73-3.83,7.25-.15,10.07-2.42,9.78-10.08-.92-24.35-1.24-48.72-1.69-73.08-.76-41.3,2.39-82.5,3.19-123.74,1.44-73.81,.41-147.67,.86-221.51,.05-8.44-1.89-11.44-10.47-10.27-28.61,3.9-57.49,2.02-86.23,3.27-48.72,2.12-97.55,2.27-146.34,2.34-205.36,.28-410.72,.24-616.08,.28-147.75,.03-295.51,.27-443.26-.13-87.41-.24-174.8-2.28-262.22-2.43-77.58-.14-155.01,5.19-232.56,4.43-7.12-.07-14.24,.05-21.34-.34-7.36-.41-10.58,1.43-10.26,10.03,1.24,33.15,1.97,66.32,2.17,99.5,.39,65.03,.43,130.06,.34,195.09-.06,43.32,1.42,86.58,3.86,129.83,.28,4.91,.57,7.74,7.2,7.68,57.94-.54,115.89-.77,173.83-.76,132.15,.02,264.31-.73,383.24,2.16Z"/><path class="cls-7" d="M605.21,457.74c-118.93-2.89-251.09-2.14-383.24-2.16-57.94,0-115.89,.22-173.83,.76-6.63,.06-6.92-2.77-7.2-7.68-2.45-43.24-3.92-86.5-3.86-129.83,.09-65.03,.05-130.06-.34-195.09-.2-33.17-.93-66.35-2.17-99.5-.32-8.6,2.91-10.44,10.26-10.03,7.1,.39,14.23,.27,21.34,.34,77.56,.76,154.98-4.57,232.56-4.43,87.42,.16,174.81,2.2,262.22,2.43,147.75,.4,295.51,.16,443.26,.13,205.36-.04,410.72,0,616.08-.28,48.79-.07,97.61-.22,146.34-2.34,28.74-1.25,57.62,.63,86.23-3.27,8.58-1.17,10.52,1.83,10.47,10.27-.45,73.84,.58,147.69-.86,221.51-.8,41.24-3.95,82.44-3.19,123.74,.45,24.36,.77,48.73,1.69,73.08,.29,7.66-2.53,9.94-9.78,10.08-58.91,1.18-117.81,3.09-176.73,3.83-59.63,.75-119.29-.38-178.91,.74-93.49,1.76-187,1.89-280.46,4.15-198.88,4.81-397.78,2.68-609.88,3.54Z"/></g><path d="M499.52,9c1.04,94.55,2.14,220.62,2.82,314.7-.04,37.55-.65,76.93-1.75,114.43-.36,9.54-.61,19.07-1.07,28.61,0,0-.6,0-.6,0-.46-9.54-.71-19.07-1.07-28.61-1.11-37.49-1.72-76.89-1.75-114.43,.3-51.77,1.3-147.63,1.62-200.26,.54,.3,.14-115.85,1.8-114.43h0Z"/></g><g><path class="cls-9" d="M1287.75,115.89c2.24,19.24-8.17,32.55-23.33,43.34-3.18,2.26-6.54,4.37-9.35,7.04-7.44,7.05-15.79,8.84-25.66,6.15-24.83-6.77-47.7-27.03-46.53-59.38,.26-7.26,2.54-13.5,8.01-18.52,6.89-6.33,13.2-13.39,20.54-19.12,14.73-11.51,31.05-17.1,49.35-8.81,15.23,6.9,21.35,20.65,25.37,35.72,1.13,4.21,1.53,8.51,1.6,13.59Zm-33.77,45.14c-6.16,.47-13.39-5.56-18.46,3.06,7.14,4.01,12.84,.98,18.32-3.16-.25-.27,.78-.93-.29-.94,.14,.35,.28,.69,.42,1.04Zm-28.17-88.12l-.08-.14c-7.98,2.81-12.43,9.04-15.37,16.44-7.25,18.29-.8,43.84,14.52,56.19,8.55,6.89,18.09,11.77,29.75,8.89,9.28-1.69,17.43-5.16,22.12-14.07,13.21-18.19,4.08-53.96-12.68-65.89-7.68-5.46-16.47-8.5-26.22-5.44-3.5,.97-7,1.94-10.5,2.91-.74,.05-1.67-.17-1.53,1.1Zm-17.82,76.07c1.73-1.61,5.16-3.29,5.49-5.44,.77-5.07-4.4-8.29-5.76-12.91-.41-1.39-1.36-1.83-2.37-1.06-2.78,2.14-6.76,3.21-7.77,6.99-.53,1.97,8.24,12.32,10.41,12.41Zm25.97,8.29c-4.01-2.42-8.64-4.1-11.86-7.65-4.39-4.84-6.89-.76-9.07,1.99-3.09,3.89,1.98,3.67,3.37,5.03,1.79,1.74,4.44,2.55,6.59,3.98,5.03,3.34,8.64,2.25,10.97-3.34Zm-31.91-46.48c-11.72,7.24-12.09,8.37-6.66,19.21q9.21-5.62,6.66-19.21Zm-9.69-.46c10.08-5.52,11.4-7.81,10.59-18.47-9.69,8.27-10.71,10.05-10.59,18.47Z"/><path class="cls-1" d="M1254.62,154.29c-11.66,2.88-21.2-2-29.75-8.89-15.32-12.35-21.76-37.9-14.52-56.19,2.93-7.4,7.39-13.64,15.37-16.44,1.11,3.3,2.64,6.31,5.64,8.34-13.96,10.08-17.4,23.45-9.8,39.02,6.49,13.29,17.47,20.36,31.94,22.32-1.94,1.65,.82,4.4-1.22,5.86-7.27,5.21-1.81,5.31,2.33,5.99Z"/><path class="cls-5" d="M1237.84,68.89c9.74-3.05,18.54-.02,26.22,5.44,16.76,11.92,25.9,47.7,12.69,65.88-2.11-2.3-2.04-7.01-6.9-6.26,12.55-25.47,.3-50.43-27.02-55.07-.79-3.77,4.51-10.57-4.99-9.99Z"/><path class="cls-6" d="M1269.83,133.96c4.87-.75,4.8,3.95,6.91,6.25-4.69,8.91-12.84,12.39-22.12,14.08-4.15-.68-9.61-.78-2.33-5.99,2.04-1.46-.73-4.21,1.22-5.86,6.33-1.12,11.99-3.52,16.33-8.48Z"/><path class="cls-1" d="M1207.98,148.97c-2.18-.09-10.94-10.44-10.41-12.41,1.01-3.78,4.99-4.86,7.77-6.99,1-.77,1.96-.33,2.37,1.06,1.36,4.62,6.53,7.83,5.76,12.91-.32,2.15-3.76,3.82-5.49,5.44Z"/><path class="cls-5" d="M1233.96,157.26c-2.34,5.59-5.94,6.68-10.97,3.34-2.14-1.42-4.8-2.24-6.59-3.98-1.39-1.35-6.46-1.13-3.37-5.03,2.18-2.75,4.67-6.82,9.07-1.99,3.23,3.55,7.85,5.23,11.86,7.65Z"/><path class="cls-6" d="M1237.84,68.89c9.49-.58,4.2,6.22,4.99,9.99-3.82,.74-7.65,1.48-11.47,2.22-2.99-2.03-4.53-5.04-5.64-8.34,0,0,.08,.14,.08,.14,.89,.15,1.26-.4,1.53-1.1,3.5-.97,7-1.94,10.5-2.91Z"/><path class="cls-5" d="M1202.05,110.78q2.55,13.59-6.66,19.21c-5.43-10.84-5.05-11.97,6.66-19.21Z"/><path class="cls-5" d="M1192.36,110.32c-.12-8.42,.9-10.21,10.59-18.47,.81,10.66-.51,12.96-10.59,18.47Z"/><path class="cls-5" d="M1253.88,160.95c-5.52,4.12-11.22,7.15-18.36,3.14,5.07-8.62,12.29-2.59,18.46-3.06l-.1-.08Z"/><path class="cls-1" d="M1227.33,71.8c-.27,.7-.64,1.26-1.53,1.1-.14-1.27,.79-1.05,1.53-1.1Z"/><path class="cls-5" d="M1253.98,161.03c-.14-.35-.28-.69-.42-1.04,1.08,0,.04,.67,.31,.95,.02,.01,.11,.09,.11,.09Z"/><path class="cls-9" d="M1231.36,81.1c3.82-.74,7.65-1.48,11.47-2.22,27.32,4.64,39.57,29.6,27.02,55.07-4.35,4.97-10.01,7.37-16.34,8.49-14.47-1.97-25.45-9.03-31.94-22.32-7.6-15.56-4.17-28.94,9.8-39.02Zm38.07,34.59c.65-15.25-6.97-25.42-22.69-30.25-11.26-3.46-22.36,4.24-23.46,16.04-.85,9.17,2.02,17.07,7.72,23.99,4.98,6.05,11.62,9.76,19.22,11.28,11.16,2.23,18.57-6.08,19.21-21.06Z"/><path class="cls-2" d="M1269.43,115.69c-.64,14.98-8.06,23.29-19.21,21.06-7.6-1.52-14.23-5.24-19.22-11.28-5.7-6.92-8.57-14.82-7.72-23.99,1.1-11.8,12.2-19.51,23.46-16.04,15.72,4.83,23.34,15,22.69,30.25Z"/></g><g><g><path class="cls-3" d="M1384.34,210.52c.16-3.13,.35-5.83,.42-8.53,.07-2.6,.99-3.29,4.18-3.34,17.12-.26,34.17,1.18,51.26,1.45,17.43,.28,34.87,.1,52.3,.05,10.22-.03,20.43-.26,30.65-.27,32.21-.03,64.41-.03,96.62,.05,9.99,.02,19.98,.3,29.98,.53,20.22,.46,40.41-.42,60.61-1.02,24.88-.73,49.74-.39,74.59,.77,1.64,.08,3.31,0,4.93-.16,1.51-.16,2.34,.31,2.69,1.44,.13,.43,.17,.89,.18,1.34,.81,22.16,1.88,44.32,2.32,66.48,.23,11.48-.64,22.97-1.07,34.46-.19,4.98-.52,9.95-.78,14.92-.74,13.92-1.43,27.85-2.26,41.77-.15,2.58-.82,5.15-1.36,7.71-.29,1.38-1.6,1.81-3.19,1.92-4.53,.31-9.06,.66-13.89,1.02-.1,.59-.33,1.27-.32,1.95,.03,2.26,.19,4.52,.21,6.78,.03,3.21-1.48,4.5-5.32,4.5-5,0-10-.09-14.99-.08-31.21,.08-62.41,.03-93.61,.31-28.66,.26-57.3-.07-85.94-.93-14.43-.43-28.86-.73-43.28-1.13-18.42-.51-36.84-1.28-55.27-1.55-14.98-.22-29.98,.17-44.96,.18-8.99,0-17.98-.09-26.97-.3-11.21-.27-22.41-.69-33.61-1.09-4.42-.16-5.75-1.16-5.83-4.8-.07-3.5,.34-7.01,.4-10.52,.33-17.74,.58-35.48,.93-53.22,.41-21.36,.89-42.72,1.36-64.07,.05-2.44,.41-4.89,.35-7.32-.17-6.24-.52-12.47-.77-18.71-.09-2.17-.24-4.35-.11-6.51,.21-3.58,.88-4.06,5.2-4.09,3.55-.03,7.11,.02,10.66,.03,1.1,0,2.19,0,3.71,0h0Zm400.89,156.31c.31-2.11,.48-3.7,.79-5.28,.17-.84,.81-1.65,.85-2.48,.53-9.86,.95-19.72,1.47-29.57,.87-16.46,2.13-32.91,2.58-49.37,.34-12.3-.2-24.62-.59-36.92-.34-10.86-1-21.71-1.54-32.56-.11-2.24-.33-4.47-.5-6.84-.79-.05-1.43-.12-2.08-.14-7.77-.26-15.54-.49-23.3-.79-23.1-.9-46.19-.11-69.28,.42-13.54,.31-27.09,.62-40.63,.6-13.99-.03-27.98-.68-41.97-.68-37.99,0-75.97,.12-113.95,.36-29.88,.18-59.75,.43-89.58-1.34-6.04-.36-12.15-.05-18.55-.05-.39,7.65-.81,15.14-1.14,22.63-.22,5.16-.26,10.32-.46,15.47-.46,11.58-1,23.16-1.48,34.74-.2,4.7-.19,9.42-.53,14.11-.85,11.84-1.35,23.68-.39,35.54,.91,11.28,1.55,22.59,2.33,33.88,.11,1.61,.38,3.21,.59,4.93,1.06,.08,1.91,.2,2.77,.21,21.21,.27,42.42,.51,63.63,.79,43.31,.57,86.62,1.05,129.93,1.77,24.54,.41,49.06,1.5,73.6,1.8,27.43,.33,54.87,.15,82.3,.09,10.33-.02,20.66-.25,30.98-.5,4.75-.12,9.48-.53,14.15-.8h0Z"/><path class="cls-8" d="M1785.23,366.83c-4.66,.27-9.4,.69-14.15,.8-10.32,.26-20.65,.48-30.98,.5-27.43,.06-54.87,.24-82.3-.09-24.54-.29-49.06-1.39-73.6-1.8-43.3-.72-86.62-1.21-129.93-1.77-21.21-.28-42.42-.52-63.63-.79-.86-.01-1.71-.13-2.77-.21-.21-1.72-.48-3.32-.59-4.93-.79-11.29-1.42-22.59-2.33-33.88-.96-11.86-.46-23.7,.39-35.54,.34-4.7,.33-9.41,.53-14.11,.48-11.58,1.02-23.16,1.48-34.74,.21-5.16,.24-10.32,.46-15.47,.32-7.49,.75-14.98,1.14-22.63,6.4,0,12.51-.31,18.55,.05,29.84,1.77,59.71,1.52,89.58,1.34,37.98-.23,75.97-.35,113.95-.36,13.99,0,27.98,.65,41.97,.68,13.54,.03,27.09-.29,40.63-.6,23.09-.53,46.18-1.31,69.28-.42,7.76,.3,15.53,.52,23.3,.79,.65,.02,1.29,.08,2.08,.14,.18,2.37,.39,4.6,.5,6.84,.54,10.85,1.2,21.7,1.54,32.56,.39,12.31,.93,24.63,.59,36.92-.45,16.46-1.71,32.91-2.58,49.37-.52,9.86-.94,19.72-1.47,29.57-.04,.84-.68,1.64-.85,2.48-.31,1.57-.48,3.16-.79,5.28h0Z"/></g><g><path d="M1506.17,302c.85,3.34,.59,6.31-.77,8.94s-3.59,4.46-6.69,5.49c-3.47,1.22-7.65,1.93-12.53,2.11-3.62,.14-6.95-1.48-10-4.86-1.13-1.27-1.82-2.63-2.08-4.09-.26-1.45-.04-2.77,.67-3.94,1.13-1.97,2.98-2.96,5.56-2.96,.7,0,1.41,.07,2.11,.21,.38,.1,.99,.26,1.83,.49,.84,.23,1.5,.41,1.97,.53s1.08,.23,1.83,.35c.75,.12,1.47,.15,2.15,.11,.68-.05,1.37-.16,2.08-.35l2.32-.7-.35-.77c-.38-.94-.91-1.74-1.62-2.39s-1.4-1.14-2.08-1.44c-.68-.3-1.49-.62-2.43-.95-4.83-1.45-9.2-4.15-13.1-8.1-2.86-2.91-4.2-6.17-4.01-9.79,.19-3.57,1.81-6.6,4.86-9.08,5.82-4.79,12.42-6.31,19.79-4.58,3.28,.75,5.73,2.42,7.32,5,.61,1.08,.96,2.25,1.06,3.52,.05,1.17-.21,1.95-.77,2.32-.56,.42-1.43,.4-2.61-.07-4.37-1.78-8.22-2.3-11.55-1.55-1.6,.38-3.57,1.22-5.92,2.53-.99,.56-1.48,1.29-1.48,2.18s.47,1.64,1.41,2.25l1.55,.92c3.38,2.07,5.99,3.45,7.82,4.15,7.51,3.01,12.07,7.84,13.66,14.51Z"/><path d="M1549.19,267.14c1.5,.42,2.68,1.19,3.52,2.29,.85,1.1,1.2,2.34,1.06,3.7-.1,.94-.39,1.78-.88,2.53-.49,.75-1.14,1.35-1.94,1.8-.8,.45-1.71,.72-2.75,.81-.99,.1-2.49,.12-4.51,.07h-8.66l.14,.85c.14,.94,.38,2.65,.7,5.14,.66,4.93,1.13,8.57,1.41,10.91,.61,5.26,.99,9.65,1.13,13.17,.05,1.69-.28,3.47-.99,5.35-.94,2.35-2.7,3.54-5.28,3.59-2.63-.05-4.39-1.22-5.28-3.52-.85-2.25-1.27-4.48-1.27-6.69,0-4.08,.1-10.23,.28-18.45,.04-3.28,.09-5.75,.14-7.39,0-.19-.02-.52-.07-.99l-.07-1.2-2.32-.21c-2.02-.19-3.62-.35-4.79-.49-.99-.14-1.74-.26-2.25-.35-1.46-.33-2.58-.89-3.38-1.69-.8-.8-1.22-1.78-1.27-2.96-.1-2.49,1.41-4.18,4.51-5.07h.21c.14-.09,.23-.14,.28-.14,2.02-.14,5-.42,8.94-.85,6.43-.7,11.24-1.06,14.44-1.06,2.58,0,5,.16,7.25,.49,.61,.1,1.17,.21,1.69,.35Z"/><path d="M1610.32,307.42c.05,.33,.12,.64,.21,.92-.05,1.74-.43,3.19-1.16,4.36-.73,1.18-1.75,1.96-3.06,2.36-1.31,.4-2.58,.34-3.8-.18-1.22-.52-2.21-1.39-2.96-2.61-.8-1.36-1.48-3.05-2.04-5.07-.1-.42-.22-.8-.39-1.13s-.38-.64-.63-.92c-.26-.28-.6-.52-1.02-.7s-.92-.28-1.48-.28c-1.83-.05-4.56-.14-8.17-.28-4.69-.23-8.33-.37-10.91-.42-.47,0-.99,.19-1.55,.56-.56,.38-.99,.8-1.27,1.27-.52,.89-1.22,2.23-2.11,4.01-.89,1.83-1.62,3.19-2.18,4.09-.75,1.36-1.65,2.29-2.71,2.78-1.06,.49-2.15,.48-3.27-.04-1.03-.42-1.81-1.21-2.32-2.36-.52-1.15-.56-2.43-.14-3.84,1.64-5.12,3.76-10.92,6.34-17.39,1.64-4.13,3.71-8.78,6.2-13.94,1.88-3.94,3.61-7.07,5.21-9.36,1.08-1.55,2.65-2.91,4.72-4.08,1.55-.94,3.03-1.41,4.44-1.41,2.49,0,4.55,1.39,6.2,4.15,4.08,6.95,7.51,13.23,10.28,18.84,2.77,5.61,5.02,11.4,6.76,17.36,.23,.8,.52,1.9,.85,3.31Zm-31.27-15.84h13.17l-7.54-15.42-5.63,15.42Z"/><path d="M1655.67,306.64c1.41,1.18,2.3,2.52,2.68,4.05,.37,1.53,.16,2.95-.63,4.26-.8,1.41-1.96,2.29-3.49,2.64s-3.2,.18-5.03-.53c-3.52-1.45-6.9-4.06-10.14-7.82l-2.18-2.53c-3.15-3.66-5.49-6.41-7.04-8.24-.14-.19-.33-.49-.56-.92-.1-.23-.19-.4-.28-.49l-.42-.7-1.62,1.13v11.9c0,1.6-.07,2.79-.21,3.59-.23,1.22-.75,2.23-1.55,3.03-.8,.8-1.76,1.24-2.89,1.34-1.13,.14-2.17-.07-3.13-.63-.96-.56-1.63-1.36-2.01-2.39-.94-2.39-1.41-4.55-1.41-6.48,0-7.32,.12-18.4,.35-33.24v-.7c0-1.08,.23-2.3,.7-3.66,.66-2.02,1.88-3,3.66-2.96,1.83,.05,2.96,1.01,3.38,2.89,.38,1.5,.77,3.8,1.2,6.9l.28,1.69c.09,.8,.23,2.02,.42,3.66,.09,.66,.16,1.29,.21,1.9l.14,1.34,1.55-1.13c.28-.19,.49-.35,.63-.49l18.1-16.34c.09-.09,.28-.23,.56-.42l.14-.07c1.45-.94,2.86-1.38,4.23-1.34s2.47,.61,3.31,1.69c.89,1.13,1.21,2.38,.95,3.77-.26,1.39-1.02,2.62-2.29,3.7-1.88,1.6-4.79,3.94-8.73,7.04-1.97,1.5-3.47,2.68-4.51,3.52-.7,.56-1.69,1.39-2.96,2.47l-2.11,1.76,1.13,1.06c.42,.38,.73,.64,.92,.77,1.08,.89,3.03,2.47,5.84,4.72,5.54,4.41,9.81,7.84,12.82,10.28Z"/><path d="M1692.43,306.15c2.44-.19,4.13,.71,5.07,2.68,.89,1.88,.49,3.73-1.2,5.56-1.03,1.13-2.25,2.04-3.66,2.75-6.01,2.91-12.58,3.66-19.72,2.25-4.18-.85-6.9-3.57-8.17-8.17-1.18-4.23-1.25-9.9-.21-17.04,.42-2.86,1.15-7.16,2.18-12.89,.47-2.72,.82-4.76,1.06-6.13l.07-.28c.14-.8,.16-1.41,.07-1.83-.52-2.58,.61-4.62,3.38-6.13,1.31-.7,2.39-1.13,3.24-1.27l3.03-.42c5.87-.84,10.28-1.34,13.24-1.48h.56c2.21,0,3.99,.64,5.35,1.9,1.22,1.08,1.85,2.42,1.9,4.01,.05,1.78-.62,3.26-2.01,4.44-1.39,1.18-3.2,1.83-5.46,1.97-1.93,.1-4.84,.05-8.73-.14l-1.83-.07c-1.83-.1-2.96,.06-3.38,.46s-.63,1.51-.63,3.35v8.87l.91-.14c.66-.14,1.67-.35,3.03-.63,2.82-.56,4.93-.89,6.34-.99,2.63-.23,5.07-.09,7.32,.42,.94,.19,1.69,.61,2.25,1.27,.56,.66,.89,1.48,.99,2.46,.14,1.93-.75,3.36-2.68,4.3-1.64,.85-3.24,1.34-4.79,1.48-2.02,.19-5.14,.38-9.37,.56-1.74,.05-3.1,.09-4.08,.14l-.7,.07v2.75c-.05,2.68-.02,4.67,.07,5.99,.04,.47,.33,.96,.84,1.48,.56,.47,1.1,.71,1.62,.71,2.63-.19,5.54-.54,8.73-1.06,.56-.09,1.36-.28,2.39-.56,1.31-.38,2.3-.59,2.96-.64Z"/></g></g><g><path d="M1357.67,98.57c1.83,.9,2.46,1.95,1.89,3.17-.12,.24-.29,.5-.52,.76-.22,.27-.47,.5-.73,.7-.27,.2-.55,.38-.85,.52-.3,.14-.58,.23-.82,.27-1.26,.16-5.53,.49-12.81,.98-.08,0-1.14,.04-3.17,.12,.77,17.37,1.18,26.25,1.22,26.66,.2,5.17,.33,8.46,.37,9.88,0,1.3-.2,2.24-.61,2.81-.33,.45-.74,.84-1.25,1.19-.51,.35-.98,.52-1.4,.52s-.9-.18-1.4-.55c-.51-.37-.91-.77-1.19-1.22-.33-.49-.55-1.5-.67-3.05-.33-5.73-.54-9.85-.64-12.35-.1-2.5-.14-6.04-.12-10.61,.02-4.57,.23-8.69,.64-12.35l-.24-.67c-5.57,.41-8.58,.63-9.03,.67-2.64,.16-4.86,.22-6.65,.18-1.06,0-1.92-.17-2.59-.52-.67-.34-1.03-1.03-1.07-2.04-.04-.53,.03-.98,.21-1.34,.18-.37,.46-.65,.82-.85,.37-.2,.73-.35,1.1-.43,.37-.08,.81-.14,1.34-.18,7.16-.49,14.48-.95,21.96-1.4,.65-.04,1.95-.14,3.9-.3,1.95-.16,3.66-.31,5.12-.43s3.02-.21,4.67-.27c1.65-.06,2.49,0,2.53,.15Z"/><path d="M1370.97,138.77c-4.39-4.07-6.47-9.48-6.22-16.23,.12-5.16,1.54-10.02,4.27-14.58,2.4-4.07,5.64-6.96,9.73-8.69,4.09-1.73,8.33-1.94,12.72-.64,3.17,.94,5.93,2,8.27,3.2,2.34,1.2,4.38,2.8,6.13,4.79,3.46,4.07,5.28,8.9,5.46,14.49,.18,5.59-1.33,10.52-4.54,14.79-1.3,1.79-2.52,3.19-3.66,4.21-5.9,5.33-12.24,7.12-19.03,5.37-5.49-1.42-9.86-3.66-13.12-6.71Zm2.99-28.12c-2.07,3.7-3.27,7.83-3.6,12.38,.08,.45,.19,1.11,.33,1.98,.14,.88,.28,1.66,.43,2.35,.14,.69,.31,1.34,.52,1.95,.69,1.95,2.21,3.83,4.54,5.64,2.34,1.81,4.92,3.14,7.75,4,2.83,.85,5.28,1.02,7.35,.49,4.47-1.22,7.93-3.72,10.37-7.5,2.44-3.78,3.33-8.07,2.68-12.87-.69-5.16-3.74-8.87-9.15-11.1-.98-.41-2.32-1.08-4.03-2.01-1.71-.93-2.77-1.52-3.17-1.77-1.42-.69-2.38-1.02-2.87-.98-5,.49-8.72,2.97-11.16,7.44Z"/><path d="M1422.09,116.99s.04,.85,.12,2.44c2.48-2.32,3.78-3.52,3.9-3.6,5.12-4.35,10.29-8.7,15.49-13.05,.57-.45,1.34-.94,2.32-1.46,2.2-1.1,3.82-.89,4.88,.61,.53,.73,.68,1.52,.46,2.35-.22,.83-.8,1.64-1.74,2.41-1.14,.9-2.4,1.88-3.78,2.96-1.38,1.08-2.82,2.2-4.3,3.35-1.49,1.16-2.76,2.15-3.81,2.96-.29,.24-2.52,2.07-6.71,5.49,.57,.24,1.23,.53,1.98,.85,.75,.33,1.42,.61,2.01,.85,.59,.24,1.2,.51,1.83,.79,.63,.29,1.26,.59,1.89,.92,.63,.33,1.21,.63,1.74,.92,2.6,1.5,7.38,4.51,14.33,9.03,1.71,1.1,2.15,2.48,1.34,4.15-.37,.69-.97,1.12-1.8,1.28-.83,.16-1.72,0-2.65-.49-1.34-.65-2.54-1.36-3.6-2.14-5.37-3.94-12.47-7.75-21.29-11.41-1.02-.41-1.69-.5-2.01-.27-.33,.22-.51,.88-.55,1.98v6.13c0,.96-.01,1.99-.03,3.11-.02,1.12-.05,2.15-.09,3.08-.04,1.1-.49,2.68-1.34,4.76-.04,.16-.16,.34-.37,.52-.2,.18-.43,.33-.67,.43-.24,.1-.47,.17-.67,.21-.24,0-.52-.14-.82-.43-.31-.28-.5-.57-.58-.85-.81-2.48-1.22-4.23-1.22-5.25-.04-8.87,0-21.35,.12-37.45,0-1.5,.22-2.62,.67-3.35,.45-.73,1.1-1.08,1.95-1.04,1.63,.08,2.48,1.55,2.56,4.39,.04,1.14,.08,2.39,.12,3.75,.04,1.36,.07,2.57,.09,3.63,.02,1.06,.05,2.32,.09,3.78,.04,1.46,.08,2.68,.12,3.66Z"/><path d="M1466.31,121.26s-.24-.06-.73-.06c0,9.56,.02,14.82,.06,15.8,.04,1.38,.41,2.31,1.1,2.78,.69,.47,1.75,.54,3.17,.21,3.5-.85,7.58-1.85,12.26-2.99,2.81-.69,4.45-.22,4.94,1.4,.24,.81,.09,1.6-.46,2.35-.55,.75-1.46,1.31-2.71,1.68-6.02,1.71-10.86,2.91-14.52,3.6-2.2,.41-4.16,.01-5.89-1.19-1.73-1.2-2.88-2.92-3.45-5.15-.45-1.71-.65-3.15-.61-4.33,.2-14.4,.41-24.18,.61-29.34,.12-2.81,.76-4.8,1.92-5.98,1.16-1.18,3.14-1.87,5.95-2.07,1.3-.08,2.63-.13,4-.15,1.36-.02,2.98,0,4.85,.03,1.87,.04,3.19,.06,3.96,.06,.61,0,1.02,.08,1.22,.24,.12,.08,.63,.59,1.53,1.52-.08,.08-.19,.2-.34,.37-.14,.16-.26,.31-.37,.43-.1,.12-.21,.23-.34,.34-.12,.1-.26,.17-.43,.21-.81,.2-2.46,.47-4.94,.79-6.1,.81-9.29,1.26-9.58,1.34-.41,.04-.82,.26-1.25,.67-.43,.41-.64,.77-.64,1.1-.04,1.3-.06,5.29-.06,11.96,1.71,0,3.43-.22,5.16-.67,1.73-.45,3.49-.67,5.28-.67,.2,0,.41,0,.61-.03,.2-.02,.36-.03,.46-.03s.22,.01,.37,.03c.14,.02,.28,.05,.43,.09,.14,.04,.31,.1,.52,.18,.49,.2,.95,.56,1.37,1.07,.43,.51,.64,.99,.64,1.43,.04,.16,.02,.35-.06,.55-.08,.2-.18,.4-.31,.58s-.26,.38-.43,.58c-.16,.2-.33,.38-.52,.52-.18,.14-.36,.27-.52,.4-.08,.08-.18,.16-.3,.24-.12,.08-.2,.13-.24,.15-.04,.02-.09,.04-.15,.06-.06,.02-.12,.03-.18,.03h-.64c-1.75-.16-3.53-.18-5.34-.06s-3.61,.1-5.4-.06Z"/><path d="M1527.55,136.7l.67-.12c.04-1.18,.12-3.02,.24-5.52s.21-4.71,.27-6.62c.06-1.91,.09-3.74,.09-5.49-.04-1.83-.19-4.42-.46-7.78s-.42-5.6-.46-6.74c-.04-1.34,.14-2.87,.55-4.57,.16-.73,.5-1.28,1.01-1.65,.51-.37,1.13-.49,1.86-.37,1.46,.24,2.17,1.16,2.13,2.75-.04,2.93,.04,6.86,.24,11.8,.2,4.94,.3,9.51,.3,13.69s-.22,8.11-.67,11.77c-.29,2.32-.49,3.72-.61,4.21-.41,1.38-1.16,2.28-2.26,2.68-1.1,.41-2.26,.22-3.48-.55-.73-.45-1.42-1.06-2.07-1.83-9.52-11.14-16.73-19.64-21.66-25.5-.49-.61-.99-1.25-1.49-1.92-.51-.67-1.09-1.47-1.74-2.41-.65-.94-1.18-1.67-1.59-2.2-.08,1.42-.12,2.16-.12,2.2-.04,3.38-.09,8.32-.15,14.82-.06,6.51-.11,11.31-.15,14.4-.04,.94-.08,1.59-.12,1.95-.16,.73-.45,1.31-.85,1.74-.41,.43-.98,.66-1.71,.7-1.46,.08-2.38-.63-2.75-2.13-.33-1.34-.47-2.6-.43-3.78,.37-9.15,.87-20.46,1.53-33.92,.04-.81,.2-1.65,.49-2.5,.2-.61,.54-1.03,1.01-1.25,.47-.22,.97-.19,1.49,.09,.12,.04,.38,.17,.76,.4,.39,.22,.66,.38,.82,.46,.16,.08,.41,.22,.73,.43,.33,.2,.58,.38,.76,.52,.18,.14,.41,.3,.67,.49,.26,.18,.5,.38,.7,.58,.2,.2,.39,.41,.55,.61,3.99,4.56,11.49,13.3,22.51,26.23,.12,.12,1.24,1.57,3.35,4.33Z"/><path d="M1569.88,102.6c.04,1.26,.11,4.76,.21,10.49,.1,5.73,.19,11.13,.27,16.2,.08,5.06,.1,8.47,.06,10.22,0,2.11-.2,3.54-.61,4.27-.33,.57-.8,1.1-1.43,1.59-.63,.49-1.21,.75-1.74,.79-.49,.04-1.04-.17-1.65-.64-.61-.47-1.1-.99-1.46-1.56-.49-.77-.71-2.03-.67-3.78,.28-14.15,.59-26.7,.92-37.64,.12-3.21,1.2-4.8,3.23-4.76,1.87,.08,2.83,1.69,2.87,4.82Z"/><path d="M1584.4,106.87v-2.62c-.24-.04-.58-.07-1.01-.09-.43-.02-.75-.04-.98-.06-.22-.02-.5-.08-.82-.18-.33-.1-.58-.23-.76-.4-.18-.16-.35-.39-.49-.67-.14-.28-.21-.63-.21-1.04,0-.32,.03-.62,.09-.88,.06-.26,.18-.5,.37-.7,.18-.2,.33-.37,.46-.49s.36-.24,.7-.37,.57-.2,.67-.24c.1-.04,.38-.1,.82-.18,.45-.08,.69-.14,.73-.18,11.14-2.56,20.88,.08,29.22,7.93,4.03,3.78,6.11,8.3,6.25,13.54,.14,5.25-1.74,9.82-5.64,13.72-5.61,5.53-12.73,9.5-21.35,11.9-1.46,.41-3.32,.45-5.55,.12-1.22-.16-2.07-.68-2.56-1.56-.49-.87-.57-1.9-.24-3.08,.28-.98,.43-1.91,.43-2.81,0-4.07-.04-14.62-.12-31.66Zm5.12,.61c.12,3.82,.11,7.29-.03,10.4s-.1,6.61,.12,10.49c.22,3.88,.7,7.39,1.43,10.52,1.95-.81,3.31-1.38,4.09-1.71,.77-.33,2-.89,3.69-1.71,1.69-.81,3.01-1.51,3.96-2.1,.96-.59,2.05-1.36,3.29-2.32,1.24-.96,2.35-1.94,3.33-2.96,1.87-2.07,2.88-4.58,3.02-7.53,.14-2.95-.58-5.44-2.17-7.47-2.77-3.54-5.86-5.96-9.27-7.26-4.43-1.67-8.26-2.4-11.47-2.2v3.84Z"/><path d="M1684.38,118.58c.28,1.26-.37,2.09-1.95,2.5-1.75,.45-3.11,.69-4.09,.73-.61,.04-1.06,.19-1.34,.46-.29,.26-.49,.7-.61,1.31-.08,.49-.67,2.91-1.77,7.26,3.33-.2,5.19-.31,5.55-.31,.41,.04,.87,.19,1.4,.46,.53,.27,.79,.5,.79,.7,.04,.41-.06,.88-.3,1.43s-.53,.86-.85,.95c-1.99,.77-4.09,1.32-6.28,1.65-.65,.08-1.13,.24-1.43,.49-.3,.24-.56,.67-.76,1.28-.77,2.16-1.99,5.17-3.66,9.03-.2,.49-.39,.86-.55,1.13-.16,.26-.43,.51-.79,.73-.37,.22-.77,.25-1.22,.09-.69-.2-1.09-.62-1.19-1.25-.1-.63-.05-1.23,.15-1.8,.12-.73,.71-3.72,1.77-8.97-3.99,.33-6.38,.53-7.2,.61-.12,.04-.25,.13-.4,.27-.14,.14-.28,.31-.4,.49-.12,.18-.2,.36-.24,.52-.12,.57-.31,1.47-.55,2.71-.24,1.24-.45,2.19-.61,2.84-.37,1.38-.88,2.58-1.53,3.6-.12,.24-.39,.46-.79,.64-.41,.18-.75,.25-1.04,.21-.28-.04-.58-.23-.88-.58-.31-.35-.48-.64-.52-.88-.08-1.42-.02-3.17,.18-5.25,.04-.16,.3-1.59,.79-4.27-2.03,0-3.11-.02-3.23-.06-1.67-.12-2.52-.85-2.56-2.2-.04-1.22,.73-1.99,2.32-2.32h.18c1.34,.12,2.48-.05,3.42-.52s1.63-1.14,2.07-2.01c.45-.87,.79-1.96,1.04-3.26,.04-.45,.13-.89,.27-1.34,.14-.45,.33-.98,.55-1.59,.22-.61,.4-1.08,.52-1.4h-6.65c-1.63,.04-2.46-.59-2.5-1.89-.04-1.22,.71-1.89,2.26-2.01,3.74-.24,5.88-.34,6.41-.3,.73,0,1.28-.15,1.65-.46,.37-.31,.63-.8,.79-1.49,.65-2.64,1.24-4.62,1.77-5.92,.08-.24,.23-.47,.46-.67,.22-.2,.5-.42,.82-.64,.33-.22,.57-.4,.73-.52,.08,.16,.23,.42,.46,.76,.22,.35,.41,.65,.55,.92,.14,.26,.19,.52,.15,.76-.04,.53-.39,2.79-1.04,6.77,4.51,0,7.26-.02,8.24-.06,.16,0,.34-.12,.55-.37,.2-.24,.37-.49,.49-.73,.12-.33,.36-1.01,.7-2.04,.35-1.04,.64-1.82,.88-2.35,.12-.2,.28-.39,.49-.55,.2-.16,.46-.34,.76-.52,.3-.18,.52-.31,.64-.4,.08,.16,.23,.39,.46,.67,.22,.28,.4,.54,.52,.76,.12,.22,.2,.44,.24,.64,0,.41-.02,.84-.06,1.31-.04,.47-.1,1.05-.18,1.74-.08,.69-.14,1.2-.18,1.53,2.2-.33,3.38-.49,3.54-.49,1.63-.16,2.56,.33,2.81,1.46Zm-15.07,11.96c.28-.98,1.12-3.64,2.5-7.99h-7.69c-.12,0-.27,.04-.43,.12-.16,.08-.3,.19-.43,.34-.12,.14-.18,.25-.18,.34-.33,1.06-1.12,3.94-2.38,8.66,4.27-.41,6.89-.67,7.87-.79,.12,0,.26-.08,.43-.24s.26-.31,.3-.43Z"/><path d="M1713.48,104c-3.66,1.18-7,3.48-10.03,6.89-3.03,3.42-4.75,6.87-5.15,10.37,.57-.16,1.37-.41,2.41-.73,1.04-.32,1.95-.6,2.75-.82,.79-.22,1.56-.4,2.29-.52,1.79-.33,3.54-.25,5.25,.21,1.71,.47,3.18,1.21,4.42,2.23,1.24,1.02,2.3,2.25,3.17,3.69,.87,1.44,1.36,3.02,1.46,4.73s-.13,3.46-.7,5.25c-.77,2.16-2.4,4.78-4.88,7.87-2.03,2.44-4.96,3.44-8.78,2.99-5.49-.61-9.57-2.42-12.23-5.43-2.66-3.01-3.98-7.28-3.93-12.81,0-3.17,.43-6.22,1.28-9.15,.85-2.93,2.06-5.61,3.63-8.05s3.49-4.62,5.76-6.53c2.28-1.91,4.8-3.42,7.56-4.51,1.91-.77,3.68-1.04,5.31-.79,.33,.04,.65,.2,.98,.49,.32,.29,.68,.67,1.07,1.16,.39,.49,.68,.83,.88,1.04-.16,.16-.41,.46-.73,.88-.33,.43-.63,.77-.92,1.04-.29,.27-.57,.44-.85,.52Zm-8.78,34.53c2.07,.49,3.91,.09,5.52-1.19,1.61-1.28,2.41-3,2.41-5.15,.04-1.79-.52-3.2-1.68-4.24s-2.61-1.41-4.36-1.13c-.9,.16-2.2,.44-3.9,.82-1.71,.39-2.95,.64-3.72,.76-.77,.16-1.26,.44-1.46,.82-.2,.39-.24,.97-.12,1.74,.41,2.32,1.13,4.02,2.17,5.09,1.04,1.08,2.75,1.9,5.16,2.47Z"/><path d="M1745.32,135.17c.04-.49,.49-3.76,1.34-9.82-.81,.49-1.24,.75-1.28,.79-4.07,3.5-8.5,3.94-13.3,1.34-5.17-2.81-7.5-6.95-7.02-12.44,.28-3.21,1.04-8.01,2.26-14.4,.08-.41,.4-.84,.95-1.31,.55-.47,.97-.68,1.25-.64,.49,.12,1,.42,1.53,.88,.53,.47,.81,.91,.85,1.31,.16,1.34,.14,3.68-.06,7.02-.04,.77-.15,1.88-.34,3.32-.18,1.44-.29,2.51-.33,3.2-.2,2.68,.65,4.86,2.56,6.53,2.81,2.4,5.53,2.32,8.17-.24,2.07-2.07,3.61-4.43,4.61-7.08,1-2.64,1.7-5.63,2.1-8.97,0-.16,0-.39,.03-.67,.02-.28,.03-.49,.03-.61,.2-2.44,1.26-3.72,3.17-3.84,.94-.04,1.71,.32,2.32,1.07,.61,.75,.87,1.74,.79,2.96-.69,10.86-1.59,23.18-2.68,36.97-.12,1.71-.57,3.01-1.34,3.9-.41,.53-.96,.99-1.65,1.37-.69,.39-1.3,.54-1.83,.46-.49-.04-1.01-.38-1.56-1.01-.55-.63-.84-1.21-.88-1.74-.16-1.91-.06-4.7,.31-8.36Z"/><path d="M1784.66,110.28c-.41,.69-.88,1.38-1.4,2.07-.53,.69-1.17,1.5-1.92,2.44-.75,.94-1.31,1.65-1.68,2.13,1.59,.85,2.42,1.3,2.5,1.34,2.4,1.42,4.02,3.22,4.85,5.4,.83,2.18,.8,4.54-.09,7.11-1.5,4.15-3.52,7.55-6.04,10.22-2.52,2.66-5.79,4.4-9.82,5.22-1.95,.41-3.9,.31-5.86-.31-.41-.16-.8-.41-1.19-.73-.39-.32-.73-.71-1.04-1.16-.3-.45-.52-.87-.64-1.28-.24-.85-.09-1.59,.46-2.2,.55-.61,1.31-1.06,2.29-1.34,1.3-.41,2.56-.73,3.78-.98,4.92-.98,8.6-4.35,11.04-10.13,.53-1.18,.41-2.24-.37-3.17-.77-.94-1.87-1.36-3.29-1.28-.24,0-.51,.02-.79,.06-.29,.04-.54,.08-.76,.12-.22,.04-.48,.09-.76,.15-.29,.06-.54,.12-.76,.18-.22,.06-.48,.12-.76,.18-.29,.06-.55,.11-.79,.15-.73,.12-1.43,.2-2.1,.24-.67,.04-1.3-.11-1.89-.46-.59-.34-1.05-.88-1.37-1.62-.45-1.02-.47-1.91-.06-2.68,.41-.77,1.12-1.56,2.14-2.38,1.3-1.1,4.37-3.78,9.21-8.05,.61-.53,1-1,1.16-1.4,.12-.2,.55-1.3,1.28-3.29-.24-.04-.61-.13-1.1-.27-.49-.14-.92-.24-1.28-.31s-.71-.07-1.04-.03c-1.18,.16-2.43,.35-3.75,.55-1.32,.2-2.78,.44-4.36,.7-1.59,.27-2.83,.46-3.72,.58-1.38,.24-2.24,.31-2.56,.18-1.22-.45-1.95-1.06-2.2-1.83-.08-.28,0-.66,.27-1.13,.26-.47,.58-.86,.95-1.19,.53-.45,1.4-.79,2.62-1.04,6.14-1.26,10.41-2.07,12.81-2.44,3.82-.61,6.59,.39,8.3,2.99,1.71,2.56,1.63,5.45-.24,8.66Z"/></g></svg>